<svg xmlns="http://www.w3.org/2000/svg" viewBox="-700 -997.6612651596732 1400 1995.3225303193465">
  <defs>
    <linearGradient gradientUnits="userSpaceOnUse" id="bamboo-dark" x1="-319.9999999999999" x2="127.99999999999996" y1="-554.2562584220408" y2="221.70250336881628">
      <stop offset="0%" stop-color="#1a5c32"/>
      <stop offset="25%" stop-color="#235e3a"/>
      <stop offset="100%" stop-color="#2d8a4e"/>
    </linearGradient>
    <linearGradient gradientUnits="userSpaceOnUse" id="bamboo-light" x1="-319.9999999999999" x2="127.99999999999996" y1="-554.2562584220408" y2="221.70250336881628">
      <stop offset="0%" stop-color="#3aad5c"/>
      <stop offset="25%" stop-color="#48c06a"/>
      <stop offset="100%" stop-color="#4bac00"/>
    </linearGradient>
  </defs>
  <polygon fill="url(#bamboo-dark)" points="-303.9999999999999 -304.8409421321224 -175.9999999999999 -526.5434455009388 384.00000000000006 443.40500673763256 128.00000000000006 443.40500673763256 -4.072608916703642e-14 221.70250336881628 -128.00000000000023 443.40500673763245 -256.0000000000002 443.40500673763245 -320.0000000000002 332.55375505322434 -128.0 0.0" transform="translate(-319.9999999999999 554.2562584220408) rotate(0 319.9999999999999 -554.2562584220408)"/>
  <polygon fill="url(#bamboo-light)" points="-303.9999999999999 -304.8409421321224 -175.9999999999999 -526.5434455009388 384.00000000000006 443.40500673763256 128.00000000000006 443.40500673763256 -4.072608916703642e-14 221.70250336881628 -128.00000000000023 443.40500673763245 -256.0000000000002 443.40500673763245 -320.0000000000002 332.55375505322434 -128.0 0.0" transform="translate(-319.9999999999999 554.2562584220408) rotate(60 319.9999999999999 -554.2562584220408)"/>
  <polygon fill="url(#bamboo-dark)" points="-303.9999999999999 -304.8409421321224 -175.9999999999999 -526.5434455009388 384.00000000000006 443.40500673763256 128.00000000000006 443.40500673763256 -4.072608916703642e-14 221.70250336881628 -128.00000000000023 443.40500673763245 -256.0000000000002 443.40500673763245 -320.0000000000002 332.55375505322434 -128.0 0.0" transform="translate(-319.9999999999999 554.2562584220408) rotate(120 319.9999999999999 -554.2562584220408)"/>
  <polygon fill="url(#bamboo-light)" points="-303.9999999999999 -304.8409421321224 -175.9999999999999 -526.5434455009388 384.00000000000006 443.40500673763256 128.00000000000006 443.40500673763256 -4.072608916703642e-14 221.70250336881628 -128.00000000000023 443.40500673763245 -256.0000000000002 443.40500673763245 -320.0000000000002 332.55375505322434 -128.0 0.0" transform="translate(-319.9999999999999 554.2562584220408) rotate(180 319.9999999999999 -554.2562584220408)"/>
  <polygon fill="url(#bamboo-dark)" points="-303.9999999999999 -304.8409421321224 -175.9999999999999 -526.5434455009388 384.00000000000006 443.40500673763256 128.00000000000006 443.40500673763256 -4.072608916703642e-14 221.70250336881628 -128.00000000000023 443.40500673763245 -256.0000000000002 443.40500673763245 -320.0000000000002 332.55375505322434 -128.0 0.0" transform="translate(-319.9999999999999 554.2562584220408) rotate(240 319.9999999999999 -554.2562584220408)"/>
  <polygon fill="url(#bamboo-light)" points="-303.9999999999999 -304.8409421321224 -175.9999999999999 -526.5434455009388 384.00000000000006 443.40500673763256 128.00000000000006 443.40500673763256 -4.072608916703642e-14 221.70250336881628 -128.00000000000023 443.40500673763245 -256.0000000000002 443.40500673763245 -320.0000000000002 332.55375505322434 -128.0 0.0" transform="translate(-319.9999999999999 554.2562584220408) rotate(300 319.9999999999999 -554.2562584220408)"/>
</svg>
